# xmcd CD database file
#
# Track frame offsets:
#	150
#	16934
#	32038
#	45550
#	61225
#	80438
#	96104
#	112588
#	130917
#	151446
#
# Disc length: 2220 seconds
#
# Revision: 0
# Processed by: cddbd v1.5.2PL0 Copyright (c) Steve Scherf et al.
# Submitted via: CDex 1.79
#
DISCID=6e08aa0a
DTITLE=John David Kent - Before The Sun Comes Up
DYEAR=2013
DGENRE=Country
TTITLE0=Country Twang 
TTITLE1=Before The Sun Comes Up
TTITLE2=Fight For You 
TTITLE3=Little Less Lonely 
TTITLE4=Leaving Without You 
TTITLE5=Last Call 
TTITLE6=Struck A Nerve
TTITLE7=Should've Just Let Me Go 
TTITLE8=Free To Drive 
TTITLE9=Until We Turn Around
EXTD=YEAR: 2013
EXTT0=
EXTT1=
EXTT2=
EXTT3=
EXTT4=
EXTT5=
EXTT6=
EXTT7=
EXTT8=
EXTT9=
PLAYORDER=
